# AST/ASF file generated using VICON BodyLanguage
# -----------------------------------------------
:version 1.10
:name VICON
:units
  mass 1.0
  length 0.45
  angle deg
:documentation
   .ast/.asf automatically generated from VICON data using
   VICON BodyBuilder and BodyLanguage model FoxedUp or BRILLIANT.MOD
:root
   order TX TY TZ RX RY RZ
   axis XYZ
   position 0 0 0  
   orientation 0 0 0 
:bonedata
  begin
     id 1 
     name lhipjoint
     direction 0.70531 -0.63749 0.310071 
     length 2.59589 
     axis 0 0 0  XYZ
  end
  begin
     id 2 
     name lfemur
     direction 0.34202 -0.939693 0  
     length 6.19797  
     axis 0 0 20  XYZ
    dof rx ry rz
    limits (-160.0 20.0)
           (-70.0 70.0)
           (-60.0 70.0)
  end
  begin
     id 3 
     name ltibia
     direction 0.34202 -0.939693 0   
     length 7.80054   
     axis 0 0 20   XYZ
    dof rx
    limits (-10.0 170.0)
  end
  begin
     id 4 
     name lfoot
     direction 0.0828572 -0.227648 0.970212   
     length 1.88124   
     axis -90 7.62852e-016 20   XYZ
    dof rx rz
    limits (-45.0 90.0)
           (-70.0 20.0)
  end
  begin
     id 5 
     name ltoes
     direction 1.53544e-011 -4.219e-011 1   
     length 0.948015   
     axis -90 7.62852e-016 20   XYZ
    dof rx
    limits (-90.0 20.0)
  end
  begin
     id 6 
     name rhipjoint
     direction -0.730062 -0.614543 0.29891   
     length 2.69282  
     axis 0 0 0  XYZ 
  end
  begin
     id 7 
     name rfemur
     direction -0.34202 -0.939693 0   
     length 5.86298   
     axis 0 0 -20   XYZ
    dof rx ry rz
    limits (-160.0 20.0)
           (-70.0 70.0)
           (-70.0 60.0)
  end
  begin
     id 8 
     name rtibia
     direction -0.34202 -0.939693 0   
     length 7.72374   
     axis 0 0 -20   XYZ
    dof rx
    limits (-10.0 170.0)
 end
 begin
     id 9 
     name rfoot
     direction -0.0967421 -0.265797 0.959163   
     length 2.02368  
     axis -90 -7.62852e-016 -20   XYZ
    dof rx rz
    limits (-45.0 90.0)
           (-20.0 70.0)
  end
  begin
     id 10 
     name rtoes
     direction -1.53524e-011 -4.21768e-011 1   
     length 1.01373   
     axis -90 -7.62852e-016 -20   XYZ
    dof rx
    limits (-90.0 20.0)
  end
  begin
     id 11 
     name lowerback
     direction 0.00561702 0.992801 -0.119643   
     length 2.02816   
     axis 0 0 0   XYZ
    dof rx ry rz
    limits (-20.0 45.0)
           (-30.0 30.0)
           (-30.0 30.0)
  end
  begin
     id 12 
     name upperback
     direction 0.00155544 0.995735 -0.0922509   
     length 2.02265   
     axis 0 0 0   XYZ
    dof rx ry rz
    limits (-20.0 45.0)
           (-30.0 30.0)
           (-30.0 30.0)
  end
  begin
     id 13 
     name thorax
     direction -0.000937535 0.999317 -0.0369292   
     length 2.04823   
     axis 0 0 0   XYZ
    dof rx ry rz
    limits (-20.0 45.0)
           (-30.0 30.0)
           (-30.0 30.0)
  end
  begin
     id 14 
     name lowerneck
     direction -0.0813151 0.981659 0.172436   
     length 1.8875   
     axis 0 0 0   XYZ
    dof rx ry rz
    limits (-20.0 45.0)
           (-30.0 30.0)
           (-30.0 30.0)
  end
  begin
     id 15 
     name upperneck
     direction 0.119359 0.955672 -0.269157   
     length 1.92801   
     axis 0 0 0   XYZ
    dof rx ry rz
    limits (-20.0 45.0)
           (-30.0 30.0)
           (-30.0 30.0)
  end
  begin
     id 16
     name head
     direction 0.0421007 0.992672 -0.113268  
     length 1.95809  
     axis 0 0 0   XYZ
    dof rx ry rz
    limits (-20.0 45.0)
           (-30.0 30.0)
           (-30.0 30.0)
  end
  begin
     id 17 
     name lclavicle
     direction 0.944093 0.32865 -0.0260136  
     length 3.84992  
     axis 0 0 0   XYZ
    dof ry rz
    limits (-20.0 10.0)
           (0.0 20.0)
  end
  begin
     id 18 
     name lhumerus
     direction 1 -4.48979e-011 -1.27712e-029   
     length 5.53593   
     axis 180 -30 -90   XYZ
    dof rx ry rz
    limits (-60.0 90.0)
           (-90.0 90.0)
           (-90.0 90.0)
  end
  begin
     id 19
     name lradius
     direction 1 -4.48966e-011 1.00051e-028   
     length 3.13345   
     axis 180 -30 -90   XYZ
    dof rx
    limits (-10.0 170.0)
  end
  begin
     id 20
     name lwrist
     direction 1 -4.4896e-011 2.56952e-028   
     length 1.56673   
     axis -5.12785e-016 90 90   XYZ
    dof ry
    limits (-180.0 0.0)
 end
  begin
     id 21 
     name lhand
     direction 1 -4.48934e-011 5.13905e-028   
     length 0.713374   
     axis -3.27915e-016 90 90   XYZ
    dof rx rz
    limits (-90.0 90.0)
           (-45.0 45.0)
  end
  begin
     id 22 
     name lfingers
     direction 1 -4.48973e-011 1.02781e-027   
     length 0.575141   
     axis -6.5583e-016 90 90   XYZ
    dof rx
    limits (0.0 90.0)
  end
  begin
     id 23
     name lthumb
     direction 0.707107 -6.34883e-011 0.707107   
     length 0.82579   
     axis -90 45 2.85299e-015   XYZ
    dof rx rz
    limits (-45.0 45.0)
           (-45.0 45.0)
  end
  begin
     id 24 
     name rclavicle
     direction -0.936895 0.34884 0.0232243   
     length 3.53304  
     axis 0 0 0   XYZ 
    dof ry rz
    limits (-10.0 20.0)
           (-20.0 0.0)
  end
  begin
     id 25 
     name rhumerus
     direction -1 -4.48965e-011 1.05514e-027  
     length 5.4685   
     axis 180 30 90   XYZ
    dof rx ry rz
    limits (-90.0 60.0)
           (-90.0 90.0)
           (-90.0 90.0)
  end
  begin
     id 26 
     name rradius
     direction -1 -4.48964e-011 -1.1079e-027   
     length 3.22411   
     axis 180 30 90   XYZ
    dof rx
    limits (-10.0 170.0)
  end
  begin
     id 27 
     name rwrist
     direction -1 -4.48973e-011 2.56952e-028   
     length 1.61206   
     axis -5.12785e-016 -90 -90   XYZ
    dof ry
    limits (-180.0 0.0)
  end
  begin
     id 28
     name rhand
     direction -1 -4.48957e-011 5.13905e-028   
     length 0.74528   
     axis -3.27915e-016 -90 -90   XYZ
    dof rx rz
    limits (-90.0 90.0)
           (-45.0 45.0)
  end
  begin
     id 29
     name rfingers
     direction -1 -4.4901e-011 1.02781e-027   
     length 0.600864   
     axis -6.5583e-016 -90 -90   XYZ
    dof rx
    limits (0.0 90.0)
  end
  begin
     id 30
     name rthumb
     direction -0.707107 -6.34972e-011 0.707107   
     length 0.862724   
     axis -90 -45 -2.85299e-015   XYZ
    dof rx rz
    limits (-45.0 45.0)
           (-45.0 45.0)
  end
:hierarchy
  begin
    root lhipjoint rhipjoint lowerback
    lhipjoint lfemur
    lfemur ltibia
    ltibia lfoot
    lfoot ltoes
    rhipjoint rfemur
    rfemur rtibia
    rtibia rfoot
    rfoot rtoes
    lowerback upperback
    upperback thorax
    thorax lowerneck lclavicle rclavicle
    lowerneck upperneck
    upperneck head
    lclavicle lhumerus
    lhumerus lradius
    lradius lwrist
    lwrist lhand lthumb
    lhand lfingers
    rclavicle rhumerus
    rhumerus rradius
    rradius rwrist
    rwrist rhand rthumb
    rhand rfingers
  end

#!OML:ASF G:\Work\Work\Patient Classification 1\Liu\Session 1\Liu.ASF
:FULLY-SPECIFIED
:DEGREES
33
root 10.4632 16.6512 -37.7004 6.91483 -7.43587 -2.92485
lowerback 0.809686 1.14759 2.94218
upperback 3.37937 1.49583 0.058202
thorax 3.09494 0.825246 -1.55815
lowerneck -24.808 -4.53227 -11.8335
upperneck 24.7912 -4.08415 7.65448
head 12.819 -1.90318 4.20808
rclavicle 1.09332e-015 -5.96354e-016
rhumerus -39.9104 16.9068 -91.1509
rradius 45.4843
rwrist -9.92455
rhand -11.1175 5.99733
rfingers 7.12502
rthumb 14.9073 -23.4463
lclavicle 1.09332e-015 -5.96354e-016
lhumerus -34.2947 0.411151 83.1589
lradius 26.3777
lwrist -6.59612
lhand -12.4006 30.691
lfingers 7.12502
lthumb 13.6709 60.222
rfemur 11.6742 -2.33335 25.8618
rtibia 16.043
rfoot -2.13635 2.06466
rtoes -12.5543
lfemur -39.8478 3.35736 -21.7869
ltibia 39.2555
lfoot -13.9745 7.42992
ltoes -5.74803
34
root 10.4719 16.6728 -37.554 6.90574 -7.25951 -2.70641
lowerback 0.797138 1.05437 2.58221
upperback 2.58794 1.39042 -0.0775084
thorax 2.27266 0.747851 -1.50835
lowerneck -22.2151 -4.38953 -11.723
upperneck 24.3495 -4.25617 7.70782
head 12.1518 -2.00124 4.1656
rclavicle 9.88954e-015 -8.34896e-015
rhumerus -41.6336 16.6995 -91.7467
rradius 45.5133
rwrist -10.0084
rhand -18.3038 19.9697
rfingers 7.12502
rthumb 7.97715 -9.85977
lclavicle 9.88954e-015 -8.34896e-015
lhumerus -35.73 0.188194 82.9536
lradius 26.3451
lwrist -6.76233
lhand -11.8996 31.4338
lfingers 7.12502
lthumb 14.1538 60.9317
rfemur 10.6622 -2.99353 25.3126
rtibia 18.4386
rfoot -1.13748 1.69917
rtoes -12.0653
lfemur -39.3331 3.50639 -22.1623
ltibia 39.2574
lfoot -14.0741 6.89061
ltoes -4.95793
35
root 10.4849 16.6972 -37.4207 7.07843 -7.54995 -2.50303
lowerback 0.514613 1.17835 2.39
upperback 2.97429 1.54939 -0.309743
thorax 2.83872 0.836023 -1.62531
lowerneck -23.4041 -5.00539 -11.4371
upperneck 24.21 -5.02161 7.49549
head 12.4061 -2.31714 3.891
rclavicle -2.09718e-014 -6.16232e-015
rhumerus -40.6473 16.5646 -91.5724
rradius 45.5021
rwrist -10.2787
rhand -19.1086 22.0954
rfingers 7.12502
rthumb 7.20031 -7.76211
lclavicle -2.09718e-014 -6.16232e-015
lhumerus -34.338 0.0134635 82.8238
lradius 25.9936
lwrist -6.99982
lhand -11.6741 31.992
lfingers 7.12502
lthumb 14.3711 61.4745
rfemur 9.22183 -3.31256 24.6646
rtibia 20.9519
rfoot 1.21999 1.51709
rtoes -9.29333
lfemur -39.0428 3.93566 -22.5543
ltibia 39.1842
lfoot -14.282 6.64077
ltoes -6.59177
36
root 10.4995 16.7399 -37.2876 7.5115 -8.72415 -2.46608
lowerback 0.278602 1.60503 2.19943
upperback 3.11592 2.11889 -0.520383
thorax 3.14593 1.12276 -1.71238
lowerneck -24.3507 -5.70319 -11.0444
upperneck 24.037 -5.91829 7.081
head 12.5961 -2.71032 3.48604
rclavicle -2.43511e-014 -3.18055e-015
rhumerus -39.8241 16.4393 -91.4431
rradius 45.272
rwrist -10.5644
rhand -18.5421 20.2529
rfingers 7.12502
rthumb 7.74709 -9.58518
lclavicle -2.43511e-014 -3.18055e-015
lhumerus -33.1635 0.0471362 82.643
lradius 25.5941
lwrist -7.27584
lhand -11.812 31.78
lfingers 7.12502
lthumb 14.2382 61.2719
rfemur 7.24908 -3.0696 23.983
rtibia 23.5868
rfoot 3.95841 1.89705
rtoes -10.6102
lfemur -38.865 5.10927 -22.8977
ltibia 38.9956
lfoot -16.2198 6.48591
ltoes -4.14262
37
root 10.5132 16.7591 -37.1419 7.39004 -8.23759 -2.14575
lowerback 0.582417 1.27277 1.58573
upperback 1.56277 1.6968 -0.436166
thorax 1.33363 0.870182 -1.32398
lowerneck -19.7753 -5.12696 -11.7806
upperneck 23.7564 -5.54556 7.61373
head 11.5965 -2.63627 3.91305
rclavicle 2.18663e-014 -8.74653e-015
rhumerus -43.3035 16.6457 -92.3496
rradius 45.418
rwrist -10.6932
rhand -16.5432 16.3048
rfingers 7.12502
rthumb 9.67612 -13.4529
lclavicle 2.18663e-014 -8.74653e-015
lhumerus -36.4243 0.383916 82.4733
lradius 25.9026
lwrist -7.54714
lhand -11.7368 31.6402
lfingers 7.12502
lthumb 14.3106 61.1271
rfemur 6.03087 -3.93737 23.4019
rtibia 26.2892
rfoot 5.02268 2.35565
rtoes -15.7833
lfemur -38.1724 5.17355 -23.4737
ltibia 38.7584
lfoot -13.9829 6.40832
ltoes -10.6432
38
root 10.5281 16.7752 -36.9944 7.22416 -7.89658 -1.65242
lowerback 0.359531 1.17575 1.29592
upperback 2.55596 1.56693 -0.721142
thorax 2.4751 0.818165 -1.43686
lowerneck -23.5092 -5.9967 -12.3274
upperneck 24.6144 -6.36145 8.30935
head 12.8127 -2.89038 4.12298
rclavicle -2.5345e-015 -1.07344e-014
rhumerus -41.0946 16.4246 -91.7703
rradius 45.1704
rwrist -10.8994
rhand -11.3907 7.34751
rfingers 7.12502
rthumb 14.6441 -22.1154
lclavicle -2.5345e-015 -1.07344e-014
lhumerus -33.8467 0.52689 82.3601
lradius 25.4523
lwrist -7.72295
lhand -11.5494 31.6479
lfingers 7.12502
lthumb 14.4912 61.1218
rfemur 4.83855 -4.81336 22.5933
rtibia 29.0836
rfoot 6.06546 2.83412
rtoes -18.4723
lfemur -37.3515 5.27535 -24.2217
ltibia 38.442
lfoot -13.8109 6.10857
ltoes -12.3485
39
root 10.5411 16.7857 -36.8444 7.07113 -7.61153 -0.992287
lowerback 0.677046 0.961896 0.398609
upperback 1.18326 1.28746 -0.835819
thorax 0.859575 0.650839 -1.07734
lowerneck -19.5751 -5.71989 -12.7946
upperneck 24.2639 -6.40578 8.61585
head 11.9312 -3.00482 4.33698
rclavicle 9.0944e-015 6.36111e-015
rhumerus -44.1866 16.5467 -92.5991
rradius 45.5018
rwrist -10.5983
rhand -14.1445 12.3233
rfingers 7.12502
rthumb 11.9898 -17.3133
lclavicle 9.0944e-015 6.36111e-015
lhumerus -36.4624 0.570832 82.1867
lradius 25.6733
lwrist -7.83111
lhand -11.6476 31.5086
lfingers 7.12502
lthumb 14.3966 60.9893
rfemur 3.49481 -5.87432 21.6206
rtibia 32.0018
rfoot 6.71555 2.80617
rtoes -20.0285
lfemur -36.5054 5.31013 -25.1166
ltibia 38.0949
lfoot -13.8862 5.76341
ltoes -13.3187
40
root 10.5559 16.7992 -36.7054 7.03588 -7.31368 -0.515828
lowerback 0.463591 0.974982 0.187097
upperback 1.96211 1.31516 -1.22333
thorax 1.78307 0.670443 -1.34361
lowerneck -22.4893 -6.67715 -12.934
upperneck 24.7687 -7.46295 8.94715
head 12.8721 -3.37763 4.2822
rclavicle 5.36719e-015 3.97569e-015
rhumerus -42.3913 16.0427 -92.1459
rradius 45.4623
rwrist -10.2401
rhand -14.6185 13.1444
rfingers 7.12502
rthumb 11.5327 -16.5184
lclavicle 5.36719e-015 3.97569e-015
lhumerus -34.1473 0.268938 82.0421
lradius 25.3352
lwrist -8.13373
lhand -11.8546 31.3162
lfingers 7.12502
lthumb 14.1971 60.811
rfemur 1.91787 -6.83216 20.8706
rtibia 35.0291
rfoot 7.38188 2.12332
rtoes -19.5649
lfemur -35.7593 5.26319 -25.7896
ltibia 37.6943
lfoot -13.9754 5.42919
ltoes -13.0189
41
root 10.5665 16.817 -36.5763 7.01438 -6.96304 -0.148101
lowerback 0.440347 0.820971 -0.280313
upperback 1.42656 1.10752 -1.32308
thorax 1.23448 0.55834 -1.19038
lowerneck -20.2642 -6.84412 -13.4065
upperneck 23.9421 -7.89148 9.27567
head 12.1985 -3.62243 4.41479
rclavicle -2.08724e-015 1.07344e-014
rhumerus -43.6526 16.0629 -92.4378
rradius 45.6723
rwrist -10.1433
rhand -14.472 12.9215
rfingers 7.12502
rthumb 11.674 -16.7333
lclavicle -2.08724e-015 1.07344e-014
lhumerus -34.8743 0.151686 81.9388
lradius 25.2928
lwrist -8.35523
lhand -12.4151 30.5127
lfingers 7.12502
lthumb 13.657 60.0446
rfemur 0.353717 -7.44481 20.3358
rtibia 38.0775
rfoot 8.24585 1.33304
rtoes -18.1444
lfemur -35.0001 5.14028 -26.282
ltibia 37.201
lfoot -14.0467 5.0857
ltoes -12.5937
42
root 10.5696 16.8335 -36.4567 6.90125 -6.39565 0.0940859
lowerback 0.357921 0.662554 -0.600542
upperback 1.98791 0.908011 -1.41962
thorax 1.84955 0.456087 -1.10675
lowerneck -21.5066 -7.69049 -13.7002
upperneck 23.5393 -8.87845 9.55563
head 12.4537 -4.01335 4.35784
rclavicle 4.77083e-015 -8.34896e-015
rhumerus -42.4698 16.1578 -92.1656
rradius 45.5669
rwrist -10.379
rhand -15.2372 14.192
rfingers 7.12502
rthumb 10.936 -15.5032
lclavicle 4.77083e-015 -8.34896e-015
lhumerus -33.2466 -0.191248 82.0257
lradius 25.191
lwrist -7.78921
lhand -12.5404 30.6594
lfingers 7.12502
lthumb 13.5362 60.1994
rfemur -1.2173 -7.91961 20.1224
rtibia 41.1192
rfoot 8.92109 0.613137
rtoes -17.7268
lfemur -34.2136 4.88072 -26.5491
ltibia 36.6997
lfoot -13.9018 4.77352
ltoes -11.9898
43
root 10.5843 16.8498 -36.3087 6.61142 -6.07153 0.734161
lowerback 0.522315 0.397949 -1.47082
upperback 1.39935 0.545434 -1.43531
thorax 1.1403 0.264899 -0.64279
lowerneck -19.1499 -7.76887 -14.3753
upperneck 22.8436 -9.13448 9.80202
head 11.8096 -4.22402 4.54165
rclavicle 6.85807e-015 9.93923e-015
rhumerus -44.1497 16.761 -92.6084
rradius 45.8437
rwrist -10.8028
rhand -17.1423 17.7391
rfingers 7.12502
rthumb 9.09806 -12.0447
lclavicle 6.85807e-015 9.93923e-015
lhumerus -34.4716 -0.090213 82.1514
lradius 25.8116
lwrist -7.1901
lhand -11.818 32.1714
lfingers 7.12502
lthumb 14.2323 61.6638
rfemur -2.51689 -8.48372 19.202
rtibia 44.0402
rfoot 9.4365 0.139236
rtoes -18.2235
lfemur -33.0529 4.69365 -27.3044
ltibia 36.161
lfoot -14.0278 4.52536
ltoes -11.7148
44
root 10.5981 16.864 -36.1749 6.53816 -6.02973 1.04736
lowerback 0.383622 0.499606 -1.54168
upperback 2.51726 0.714381 -1.77434
thorax 2.37056 0.34409 -0.944573
lowerneck -22.8955 -8.91754 -14.384
upperneck 23.3007 -10.3417 10.1288
head 12.9205 -4.60261 4.37217
rclavicle 4.17448e-015 1.43125e-014
rhumerus -41.6461 16.3546 -92.0134
rradius 45.6402
rwrist -11.0727
rhand -9.46352 6.73999
rfingers 7.12502
rthumb 16.5002 -22.5784
lclavicle 4.17448e-015 1.43125e-014
lhumerus -31.493 -0.471294 82.0908
lradius 25.8444
lwrist -6.98322
lhand -11.749 32.3397
lfingers 7.12502
lthumb 14.2989 61.8274
rfemur -4.00082 -8.53298 18.7112
rtibia 46.7961
rfoot 9.93158 -0.228672
rtoes -20.6875
lfemur -32.1882 4.70072 -27.7334
ltibia 35.6618
lfoot -14.247 4.36411
ltoes -12.1514
45
root 10.6082 16.8774 -36.0424 6.28123 -5.86777 1.31413
lowerback 0.524849 0.339698 -1.98126
upperback 1.99902 0.486757 -1.74072
thorax 1.75333 0.22619 -0.669101
lowerneck -20.5466 -8.8533 -15.1077
upperneck 22.636 -10.412 10.4862
head 12.2788 -4.72934 4.65028
rclavicle 4.96962e-015 7.15625e-015
rhumerus -42.9396 16.6009 -92.2464
rradius 45.6579
rwrist -10.7181
rhand -16.0665 18.2971
rfingers 7.12502
rthumb 10.136 -11.4388
lclavicle 4.96962e-015 7.15625e-015
lhumerus -32.5872 -0.393672 82.1501
lradius 26.2763
lwrist -6.87232
lhand -13.2129 30.2067
lfingers 7.12502
lthumb 12.888 59.7887
rfemur -5.13774 -8.333 18.2752
rtibia 49.5611
rfoot 10.653 -0.742648
rtoes -19.3726
lfemur -31.0764 4.73732 -28.0695
ltibia 35.0405
lfoot -14.2543 4.07808
ltoes -12.212
